HIERARCHY
ROOT mixamorig:Hips
{
	OFFSET -0.000008 104.274872 1.554316
	CHANNELS 6 Xposition Yposition Zposition Xrotation Yrotation Zrotation
	JOINT mixamorig:Spine
	{
		OFFSET -0.000005 10.181595 0.131519
		CHANNELS 6 Xposition Yposition Zposition Xrotation Yrotation Zrotation
		JOINT mixamorig:Spine1
		{
			OFFSET -0.000000 9.893959 -1.470707
			CHANNELS 6 Xposition Yposition Zposition Xrotation Yrotation Zrotation
			JOINT mixamorig:Spine2
			{
				OFFSET -0.000000 9.220757 -1.370641
				CHANNELS 6 Xposition Yposition Zposition Xrotation Yrotation Zrotation
				JOINT mixamorig:Neck
				{
					OFFSET 0.000001 16.740417 -2.049036
					CHANNELS 6 Xposition Yposition Zposition Xrotation Yrotation Zrotation
					JOINT mixamorig:Head
					{
						OFFSET 0.000000 9.617874 1.685006
						CHANNELS 6 Xposition Yposition Zposition Xrotation Yrotation Zrotation
						JOINT mixamorig:HeadTop_End
						{
							OFFSET 0.000002 22.037354 7.501101
							CHANNELS 6 Xposition Yposition Zposition Xrotation Yrotation Zrotation
							End Site
							{
								OFFSET 0.000168 2310.654297 -282.823242
							}
						}
					}
				}
				JOINT mixamorig:RightShoulder
				{
					OFFSET -4.569970 11.014908 -2.160885
					CHANNELS 6 Xposition Yposition Zposition Xrotation Yrotation Zrotation
					JOINT mixamorig:RightArm
					{
						OFFSET -10.592851 -0.524811 -2.232101
						CHANNELS 6 Xposition Yposition Zposition Xrotation Yrotation Zrotation
						JOINT mixamorig:RightForeArm
						{
							OFFSET -27.841511 0.000031 -0.000004
							CHANNELS 6 Xposition Yposition Zposition Xrotation Yrotation Zrotation
							JOINT mixamorig:RightHand
							{
								OFFSET -28.328831 -0.000015 0.000015
								CHANNELS 6 Xposition Yposition Zposition Xrotation Yrotation Zrotation
								JOINT mixamorig:RightHandThumb1
								{
									OFFSET -2.464806 -1.573990 2.681852
									CHANNELS 6 Xposition Yposition Zposition Xrotation Yrotation Zrotation
									JOINT mixamorig:RightHandThumb2
									{
										OFFSET -3.215179 -1.872803 1.924282
										CHANNELS 6 Xposition Yposition Zposition Xrotation Yrotation Zrotation
										JOINT mixamorig:RightHandThumb3
										{
											OFFSET -2.654831 -1.527969 1.512609
											CHANNELS 6 Xposition Yposition Zposition Xrotation Yrotation Zrotation
											JOINT mixamorig:RightHandThumb4
											{
												OFFSET -2.018814 -1.152008 1.108052
												CHANNELS 6 Xposition Yposition Zposition Xrotation Yrotation Zrotation
												End Site
												{
													OFFSET -188.809540 -114.533607 132.431396
												}
											}
										}
									}
								}
								JOINT mixamorig:RightHandIndex1
								{
									OFFSET -9.108284 -0.517868 2.259835
									CHANNELS 6 Xposition Yposition Zposition Xrotation Yrotation Zrotation
									JOINT mixamorig:RightHandIndex2
									{
										OFFSET -3.699989 0.000000 0.001215
										CHANNELS 6 Xposition Yposition Zposition Xrotation Yrotation Zrotation
										JOINT mixamorig:RightHandIndex3
										{
											OFFSET -2.850006 0.000031 -0.000522
											CHANNELS 6 Xposition Yposition Zposition Xrotation Yrotation Zrotation
											JOINT mixamorig:RightHandIndex4
											{
												OFFSET -2.772186 -0.000015 -0.000020
												CHANNELS 6 Xposition Yposition Zposition Xrotation Yrotation Zrotation
												End Site
												{
													OFFSET -277.218445 0.000000 -0.050231
												}
											}
										}
									}
								}
								JOINT mixamorig:RightHandMiddle1
								{
									OFFSET -9.532516 -0.000031 -0.000023
									CHANNELS 6 Xposition Yposition Zposition Xrotation Yrotation Zrotation
									JOINT mixamorig:RightHandMiddle2
									{
										OFFSET -3.700005 -0.000015 0.003713
										CHANNELS 6 Xposition Yposition Zposition Xrotation Yrotation Zrotation
										JOINT mixamorig:RightHandMiddle3
										{
											OFFSET -2.949974 0.000015 -0.002054
											CHANNELS 6 Xposition Yposition Zposition Xrotation Yrotation Zrotation
											JOINT mixamorig:RightHandMiddle4
											{
												OFFSET -2.946640 0.000000 -0.000156
												CHANNELS 6 Xposition Yposition Zposition Xrotation Yrotation Zrotation
												End Site
												{
													OFFSET -294.664337 0.000000 -0.113670
												}
											}
										}
									}
								}
								JOINT mixamorig:RightHandRing1
								{
									OFFSET -9.103600 -0.043076 -1.865134
									CHANNELS 6 Xposition Yposition Zposition Xrotation Yrotation Zrotation
									JOINT mixamorig:RightHandRing2
									{
										OFFSET -3.379288 0.000000 -0.001055
										CHANNELS 6 Xposition Yposition Zposition Xrotation Yrotation Zrotation
										JOINT mixamorig:RightHandRing3
										{
											OFFSET -2.889687 -0.000015 0.000379
											CHANNELS 6 Xposition Yposition Zposition Xrotation Yrotation Zrotation
											JOINT mixamorig:RightHandRing4
											{
												OFFSET -2.638809 -0.000015 0.000941
												CHANNELS 6 Xposition Yposition Zposition Xrotation Yrotation Zrotation
												End Site
												{
													OFFSET -263.880371 0.000000 0.516020
												}
											}
										}
									}
								}
								JOINT mixamorig:RightHandPinky1
								{
									OFFSET -8.076683 -0.486710 -3.806280
									CHANNELS 6 Xposition Yposition Zposition Xrotation Yrotation Zrotation
									JOINT mixamorig:RightHandPinky2
									{
										OFFSET -3.600014 -0.000015 -0.003747
										CHANNELS 6 Xposition Yposition Zposition Xrotation Yrotation Zrotation
										JOINT mixamorig:RightHandPinky3
										{
											OFFSET -2.099983 0.000000 -0.005739
											CHANNELS 6 Xposition Yposition Zposition Xrotation Yrotation Zrotation
											JOINT mixamorig:RightHandPinky4
											{
												OFFSET -2.115768 -0.000031 -0.003680
												CHANNELS 6 Xposition Yposition Zposition Xrotation Yrotation Zrotation
												End Site
												{
													OFFSET -211.577087 0.000000 -0.350686
												}
											}
										}
									}
								}
							}
						}
					}
				}
				JOINT mixamorig:LeftShoulder
				{
					OFFSET 4.570447 11.014725 -2.160855
					CHANNELS 6 Xposition Yposition Zposition Xrotation Yrotation Zrotation
					JOINT mixamorig:LeftArm
					{
						OFFSET 10.592371 -0.524597 -2.232119
						CHANNELS 6 Xposition Yposition Zposition Xrotation Yrotation Zrotation
						JOINT mixamorig:LeftForeArm
						{
							OFFSET 27.841532 -0.000031 0.000026
							CHANNELS 6 Xposition Yposition Zposition Xrotation Yrotation Zrotation
							JOINT mixamorig:LeftHand
							{
								OFFSET 28.328846 -0.000061 0.000022
								CHANNELS 6 Xposition Yposition Zposition Xrotation Yrotation Zrotation
								JOINT mixamorig:LeftHandThumb1
								{
									OFFSET 2.466141 -1.576172 2.681732
									CHANNELS 6 Xposition Yposition Zposition Xrotation Yrotation Zrotation
									JOINT mixamorig:LeftHandThumb2
									{
										OFFSET 3.217812 -1.872070 1.916482
										CHANNELS 6 Xposition Yposition Zposition Xrotation Yrotation Zrotation
										JOINT mixamorig:LeftHandThumb3
										{
											OFFSET 2.656029 -1.528778 1.514513
											CHANNELS 6 Xposition Yposition Zposition Xrotation Yrotation Zrotation
											JOINT mixamorig:LeftHandThumb4
											{
												OFFSET 2.020889 -1.154053 1.115139
												CHANNELS 6 Xposition Yposition Zposition Xrotation Yrotation Zrotation
												End Site
												{
													OFFSET 190.885437 -115.081749 130.048782
												}
											}
										}
									}
								}
								JOINT mixamorig:LeftHandIndex1
								{
									OFFSET 9.109314 -0.518021 2.259871
									CHANNELS 6 Xposition Yposition Zposition Xrotation Yrotation Zrotation
									JOINT mixamorig:LeftHandIndex2
									{
										OFFSET 3.699989 0.000000 -0.000322
										CHANNELS 6 Xposition Yposition Zposition Xrotation Yrotation Zrotation
										JOINT mixamorig:LeftHandIndex3
										{
											OFFSET 2.850006 0.000000 0.000352
											CHANNELS 6 Xposition Yposition Zposition Xrotation Yrotation Zrotation
											JOINT mixamorig:LeftHandIndex4
											{
												OFFSET 2.774864 -0.000031 -0.000027
												CHANNELS 6 Xposition Yposition Zposition Xrotation Yrotation Zrotation
												End Site
												{
													OFFSET 277.486267 0.000000 -0.009857
												}
											}
										}
									}
								}
								JOINT mixamorig:LeftHandMiddle1
								{
									OFFSET 9.533394 0.000061 0.000044
									CHANNELS 6 Xposition Yposition Zposition Xrotation Yrotation Zrotation
									JOINT mixamorig:LeftHandMiddle2
									{
										OFFSET 3.699989 -0.000015 -0.000231
										CHANNELS 6 Xposition Yposition Zposition Xrotation Yrotation Zrotation
										JOINT mixamorig:LeftHandMiddle3
										{
											OFFSET 2.949997 -0.000015 -0.000059
											CHANNELS 6 Xposition Yposition Zposition Xrotation Yrotation Zrotation
											JOINT mixamorig:LeftHandMiddle4
											{
												OFFSET 2.952896 0.000031 0.000063
												CHANNELS 6 Xposition Yposition Zposition Xrotation Yrotation Zrotation
												End Site
												{
													OFFSET 295.289337 0.000000 0.022810
												}
											}
										}
									}
								}
								JOINT mixamorig:LeftHandRing1
								{
									OFFSET 9.104523 -0.042999 -1.865074
									CHANNELS 6 Xposition Yposition Zposition Xrotation Yrotation Zrotation
									JOINT mixamorig:LeftHandRing2
									{
										OFFSET 3.150009 -0.000031 0.000043
										CHANNELS 6 Xposition Yposition Zposition Xrotation Yrotation Zrotation
										JOINT mixamorig:LeftHandRing3
										{
											OFFSET 2.949982 -0.000015 0.000040
											CHANNELS 6 Xposition Yposition Zposition Xrotation Yrotation Zrotation
											JOINT mixamorig:LeftHandRing4
											{
												OFFSET 2.644348 0.000000 0.000057
												CHANNELS 6 Xposition Yposition Zposition Xrotation Yrotation Zrotation
												End Site
												{
													OFFSET 264.434631 0.000000 0.012105
												}
											}
										}
									}
								}
								JOINT mixamorig:LeftHandPinky1
								{
									OFFSET 8.077789 -0.486847 -3.806259
									CHANNELS 6 Xposition Yposition Zposition Xrotation Yrotation Zrotation
									JOINT mixamorig:LeftHandPinky2
									{
										OFFSET 3.599953 0.000031 0.014727
										CHANNELS 6 Xposition Yposition Zposition Xrotation Yrotation Zrotation
										JOINT mixamorig:LeftHandPinky3
										{
											OFFSET 2.100021 0.000015 0.007705
											CHANNELS 6 Xposition Yposition Zposition Xrotation Yrotation Zrotation
											JOINT mixamorig:LeftHandPinky4
											{
												OFFSET 2.125504 0.000031 0.007517
												CHANNELS 6 Xposition Yposition Zposition Xrotation Yrotation Zrotation
												End Site
												{
													OFFSET 212.550781 0.000000 0.625752
												}
											}
										}
									}
								}
							}
						}
					}
				}
			}
		}
	}
	JOINT mixamorig:RightUpLeg
	{
		OFFSET -8.207787 -6.751648 -1.599560
		CHANNELS 6 Xposition Yposition Zposition Xrotation Yrotation Zrotation
		JOINT mixamorig:RightLeg
		{
			OFFSET -0.000002 -44.370117 0.345942
			CHANNELS 6 Xposition Yposition Zposition Xrotation Yrotation Zrotation
			JOINT mixamorig:RightFoot
			{
				OFFSET 0.000003 -44.423679 -3.043532
				CHANNELS 6 Xposition Yposition Zposition Xrotation Yrotation Zrotation
				JOINT mixamorig:RightToeBase
				{
					OFFSET -0.000002 -8.728671 10.710558
					CHANNELS 6 Xposition Yposition Zposition Xrotation Yrotation Zrotation
					JOINT mixamorig:RightToe_End
					{
						OFFSET -0.000001 -0.000679 9.278119
						CHANNELS 6 Xposition Yposition Zposition Xrotation Yrotation Zrotation
						End Site
						{
							OFFSET 0.000000 -0.067690 927.812134
						}
					}
				}
			}
		}
	}
	JOINT mixamorig:LeftUpLeg
	{
		OFFSET 8.207793 -6.751686 -1.599556
		CHANNELS 6 Xposition Yposition Zposition Xrotation Yrotation Zrotation
		JOINT mixamorig:LeftLeg
		{
			OFFSET -0.000004 -44.370014 0.346954
			CHANNELS 6 Xposition Yposition Zposition Xrotation Yrotation Zrotation
			JOINT mixamorig:LeftFoot
			{
				OFFSET -0.000001 -44.423672 -3.044401
				CHANNELS 6 Xposition Yposition Zposition Xrotation Yrotation Zrotation
				JOINT mixamorig:LeftToeBase
				{
					OFFSET -0.000002 -8.728669 10.710558
					CHANNELS 6 Xposition Yposition Zposition Xrotation Yrotation Zrotation
					JOINT mixamorig:LeftToe_End
					{
						OFFSET -0.000003 -0.000679 9.278133
						CHANNELS 6 Xposition Yposition Zposition Xrotation Yrotation Zrotation
						End Site
						{
							OFFSET 0.000000 -0.068021 927.813477
						}
					}
				}
			}
		}
	}
}
MOTION
Frames: 3
Frame Time: 0.033333
0.000006 104.270477 1.554256 0.000010 0.000003 -0.000113 -0.000005 10.181587 0.131522 0.000001 -0.000003 0.000084 -0.000000 9.893967 -1.470711 0.000001 0.000000 -0.000000 -0.000000 9.220802 -1.370642 0.000000 -0.000000 -0.000000 0.000001 16.740433 -2.049030 0.000000 -0.000000 -0.000000 0.000000 9.617859 1.685014 0.000000 0.000000 0.000000 0.000002 22.037384 7.501101 0.000000 -0.000000 0.000000 -4.569968 11.014880 -2.160881 0.000008 0.000001 -0.000038 -10.592875 -0.524767 -2.231909 74.917579 28.960163 -22.384511 -27.841524 0.000013 0.000547 -54.410240 107.916429 70.477430 -28.328831 0.000004 0.000020 -0.000322 -0.000043 0.000008 -2.464431 -1.573906 2.682382 -33.079900 -154.572590 21.286751 -3.215240 -1.872494 1.924620 149.411399 34.619207 32.475709 -2.654953 -1.527906 1.513080 152.446694 26.118761 -35.070542 -2.018837 -1.152017 1.108064 -0.000003 0.000003 -0.000000 -9.108384 -0.517581 2.260175 110.519182 17.315749 -24.835633 -3.700069 0.000298 0.001548 105.143379 14.653112 -19.041678 -2.850095 0.000364 -0.000219 103.014737 11.843000 -14.860808 -2.772156 0.000000 -0.000021 -0.000001 -0.000002 0.000000 -9.532596 0.000256 0.000254 97.427854 18.434100 -21.104977 -3.700072 0.000313 0.003979 95.264658 14.613236 -15.897858 -2.950061 0.000321 -0.001802 93.879263 11.835156 -12.650745 -2.946618 -0.000000 -0.000157 0.000001 0.000001 0.000000 -9.103704 -0.042796 -1.864878 92.410738 21.659394 -22.518790 -3.379363 0.000285 -0.000794 94.577773 13.420465 -14.546052 -2.889768 0.000363 0.000638 97.526236 7.790778 -8.936192 -2.638814 -0.000015 0.000940 -0.000001 -0.000000 -0.000001 -8.076757 -0.486424 -3.806051 77.398959 20.868914 -16.658220 -3.600050 0.000264 -0.003546 81.586036 10.701391 -8.925351 -2.100000 0.000317 -0.005528 84.334702 5.345600 -4.644155 -2.115757 -0.000026 -0.003685 0.000004 0.000002 -0.000005 4.570446 11.014691 -2.160851 -0.000018 0.000010 -0.000021 10.592383 -0.524492 -2.232335 73.798896 -5.694359 4.276991 27.841820 0.000069 -0.000186 91.246485 -69.583700 70.756484 28.328815 -0.000029 0.000015 0.000022 -0.000088 -0.000000 2.466267 -1.575919 2.681801 -159.959246 -7.395730 44.727545 3.217868 -1.871925 1.916453 166.169091 -15.077439 60.288707 2.656090 -1.528713 1.514525 133.215668 -30.010984 69.824143 2.020884 -1.154057 1.115162 0.000001 0.000004 0.000002 9.109381 -0.517925 2.259757 71.206682 -22.129309 15.931645 3.700042 0.000118 -0.000465 71.515421 -17.077549 12.354471 2.850049 0.000125 0.000208 68.556794 -14.191586 9.698609 2.774899 -0.000043 -0.000025 0.000003 0.000000 -0.000002 9.533465 0.000153 -0.000083 71.189860 -20.283370 14.586127 3.700040 0.000130 -0.000377 74.317267 -13.780043 10.463300 2.950049 0.000130 -0.000182 73.930562 -15.500643 11.699054 2.952865 -0.000015 0.000063 -0.000001 0.000002 0.000000 9.104599 -0.042906 -1.865233 70.581331 -18.992992 13.506194 3.150068 0.000154 -0.000096 73.202061 -14.438482 10.750248 2.950012 0.000126 -0.000063 75.614415 -14.098821 10.962414 2.644313 0.000031 0.000056 0.000001 0.000002 0.000002 8.077853 -0.486770 -3.806378 61.877723 -19.690539 12.258021 3.599988 0.000103 0.014594 60.024686 -17.501052 10.484146 2.100033 0.000129 0.007544 62.656727 -15.747838 9.940475 2.125510 -0.000007 0.007508 -0.000004 -0.000001 0.000000 -8.207786 -6.751667 -1.599560 -0.077001 -0.000003 0.000080 -0.000002 -44.370110 0.345938 0.153719 -0.000000 -0.000000 0.000000 -44.423679 -3.043532 -0.076700 0.000000 -0.000002 -0.000006 -8.728667 10.710559 -0.000009 -0.000000 -0.000000 -0.000001 -0.000679 9.278123 0.000000 -0.000000 -0.000000 8.207792 -6.751710 -1.599556 -0.074518 -0.000003 0.000081 -0.000002 -44.370014 0.346960 0.148822 0.000002 0.000000 -0.000001 -44.423664 -3.044403 -0.074314 0.000000 -0.000002 -0.000004 -8.728671 10.710558 0.000007 -0.000000 -0.000000 0.000000 -0.000680 9.278137 -0.000000 0.000000 -0.000001 
0.000006 104.270477 1.554256 0.000010 0.000003 -0.000113 -0.000005 10.181587 0.131522 0.000001 -0.000003 0.000084 -0.000000 9.893967 -1.470711 0.000001 0.000000 -0.000000 -0.000000 9.220802 -1.370642 0.000000 -0.000000 -0.000000 0.000001 16.740433 -2.049030 0.000000 -0.000000 -0.000000 0.000000 9.617859 1.685014 0.000000 0.000000 0.000000 0.000002 22.037384 7.501101 0.000000 -0.000000 0.000000 -4.569968 11.014880 -2.160881 0.000008 0.000001 -0.000038 -10.592871 -0.524770 -2.231903 75.149054 29.749483 -23.099568 -27.841518 -0.000003 0.000550 -51.058000 107.769245 66.415844 -28.328815 0.000005 0.000025 -0.000319 -0.000044 0.000008 -2.464401 -1.573792 2.682344 -44.457274 -159.614745 -1.964991 -3.215226 -1.872468 1.924609 143.508517 33.237780 40.207688 -2.654966 -1.527852 1.513036 149.806266 28.831765 -15.580707 -2.018823 -1.152000 1.108069 -0.000001 0.000000 0.000004 -9.108377 -0.517555 2.260143 107.432312 14.669604 -19.952086 -3.700072 0.000322 0.001552 104.916186 12.522333 -16.219806 -2.850097 0.000365 -0.000216 103.570714 10.651106 -13.503077 -2.772185 0.000001 -0.000018 -0.000001 -0.000003 -0.000001 -9.532583 0.000268 0.000250 95.082374 16.924478 -18.626935 -3.700065 0.000326 0.003981 94.867264 13.467637 -14.546305 -2.950072 0.000316 -0.001777 97.018316 12.020692 -13.569416 -2.946624 0.000001 -0.000154 0.000001 0.000000 -0.000000 -9.103701 -0.042770 -1.864881 91.018985 21.116256 -21.439486 -3.379368 0.000304 -0.000800 92.471882 12.530600 -13.097239 -2.889775 0.000340 0.000647 99.259191 7.806292 -9.230715 -2.638803 -0.000003 0.000938 0.000000 -0.000001 -0.000002 -8.076764 -0.486406 -3.806063 77.148824 21.847190 -17.373834 -3.600048 0.000244 -0.003549 80.378431 11.761257 -9.631134 -2.100029 0.000312 -0.005512 85.499816 6.043379 -5.383092 -2.115782 -0.000053 -0.003685 0.000001 -0.000000 -0.000004 4.570446 11.014691 -2.160851 -0.000018 0.000010 -0.000021 10.592361 -0.524511 -2.232306 73.813861 5.294297 -3.977234 27.841810 0.000072 -0.000208 91.282787 -71.493209 72.714153 28.328833 -0.000028 0.000026 0.000020 -0.000090 -0.000000 2.466162 -1.575830 2.681775 -165.093185 -30.806964 9.194003 3.217857 -1.871967 1.916508 161.104123 -10.664169 81.292003 2.656091 -1.528729 1.514537 136.876923 -28.165395 74.575058 2.020905 -1.154080 1.115143 -0.000001 0.000002 0.000009 9.109379 -0.517913 2.259746 72.930649 -23.991203 17.837944 3.700027 0.000100 -0.000452 69.886106 -15.994514 11.225505 2.850030 0.000134 0.000186 69.247367 -11.408695 7.890025 2.774886 -0.000032 -0.000028 0.000002 0.000003 0.000000 9.533462 0.000153 -0.000072 70.469971 -22.245035 15.804931 3.700041 0.000131 -0.000377 73.739801 -13.125470 9.860904 2.950049 0.000135 -0.000218 73.311057 -11.360368 8.468601 2.952876 -0.000017 0.000061 -0.000001 0.000001 -0.000001 9.104589 -0.042913 -1.865198 70.371234 -21.106084 14.967168 3.150038 0.000155 -0.000093 73.957828 -14.052803 10.605854 2.950000 0.000139 -0.000074 73.264229 -10.476274 7.800496 2.644322 0.000030 0.000061 -0.000001 -0.000001 0.000004 8.077843 -0.486782 -3.806384 62.180963 -21.193986 13.262457 3.599999 0.000108 0.014590 61.613347 -17.287701 10.689168 2.100041 0.000124 0.007547 63.184215 -12.625233 8.091196 2.125498 -0.000002 0.007509 -0.000001 -0.000001 0.000002 -8.207786 -6.751667 -1.599560 -0.077001 -0.000003 0.000080 -0.000002 -44.370110 0.345938 0.153719 -0.000000 -0.000000 0.000000 -44.423679 -3.043532 -0.076700 0.000000 -0.000002 -0.000006 -8.728667 10.710559 -0.000009 -0.000000 -0.000000 -0.000001 -0.000679 9.278123 0.000000 -0.000000 -0.000000 8.207792 -6.751710 -1.599556 -0.074518 -0.000003 0.000081 -0.000002 -44.370014 0.346960 0.148822 0.000002 0.000000 -0.000001 -44.423664 -3.044403 -0.074314 0.000000 -0.000002 -0.000004 -8.728671 10.710558 0.000007 -0.000000 -0.000000 0.000000 -0.000680 9.278137 -0.000000 0.000000 -0.000001 
0.000006 104.270477 1.554256 0.000010 0.000003 -0.000113 -0.000005 10.181587 0.131522 0.000001 -0.000003 0.000084 -0.000000 9.893967 -1.470711 0.000001 0.000000 -0.000000 -0.000000 9.220802 -1.370642 0.000000 -0.000000 -0.000000 0.000001 16.740433 -2.049030 0.000000 -0.000000 -0.000000 0.000000 9.617859 1.685014 0.000000 0.000000 0.000000 0.000002 22.037384 7.501101 0.000000 -0.000000 0.000000 -4.569968 11.014880 -2.160881 0.000008 0.000001 -0.000038 -10.592865 -0.524788 -2.231859 75.278609 39.014864 -30.561500 -27.841526 -0.000005 0.000555 -49.807949 104.343331 61.752109 -28.328817 0.000024 0.000033 -0.000319 -0.000044 0.000005 -2.464405 -1.573804 2.682340 -44.717518 -159.602410 -2.588883 -3.215232 -1.872493 1.924595 144.687531 33.114099 34.056921 -2.654956 -1.527841 1.513034 148.097503 28.801508 -16.343785 -2.018831 -1.152012 1.108054 -0.000005 0.000001 0.000004 -9.108369 -0.517543 2.260151 107.246777 13.503059 -18.321404 -3.700052 0.000342 0.001542 105.277251 10.924124 -14.247375 -2.850097 0.000370 -0.000213 104.422036 9.571188 -12.323865 -2.772171 -0.000015 -0.000019 -0.000001 -0.000001 -0.000000 -9.532583 0.000269 0.000249 95.183262 15.314358 -16.901093 -3.700060 0.000322 0.003983 94.924972 12.634797 -13.656282 -2.950073 0.000345 -0.001780 97.229485 11.735457 -13.296756 -2.946630 0.000002 -0.000152 -0.000003 0.000001 -0.000001 -9.103696 -0.042775 -1.864873 91.846961 20.087762 -20.684697 -3.379364 0.000313 -0.000797 92.666836 12.918563 -13.547577 -2.889750 0.000341 0.000651 99.514647 8.740784 -10.374868 -2.638804 -0.000003 0.000941 -0.000005 0.000001 0.000001 -8.076760 -0.486410 -3.806046 77.591147 22.035652 -17.663028 -3.600061 0.000253 -0.003554 79.835390 12.707025 -10.329661 -2.100030 0.000308 -0.005498 84.822781 7.139750 -6.318663 -2.115769 -0.000038 -0.003677 0.000000 -0.000000 -0.000003 4.570446 11.014691 -2.160851 -0.000018 0.000010 -0.000021 10.592405 -0.524473 -2.232368 73.812570 -14.431693 10.863218 27.841806 0.000053 -0.000184 91.698507 -74.339854 75.982023 28.328823 -0.000028 0.000026 0.000021 -0.000089 0.000000 2.466180 -1.575805 2.681776 -164.983561 -31.170685 8.524185 3.217859 -1.871956 1.916494 161.199636 -11.688467 78.251210 2.656099 -1.528728 1.514535 135.984996 -28.655939 72.909182 2.020902 -1.154068 1.115151 0.000003 0.000003 0.000004 9.109396 -0.517913 2.259749 73.258471 -23.450034 17.533164 3.700040 0.000127 -0.000445 71.087181 -15.593694 11.187186 2.850066 0.000157 0.000207 70.190644 -10.996099 7.737954 2.774870 -0.000012 -0.000027 -0.000001 0.000001 0.000001 9.533467 0.000156 -0.000085 71.165749 -21.479464 15.449350 3.700034 0.000141 -0.000392 74.569485 -12.849899 9.798758 2.950055 0.000138 -0.000197 74.062405 -11.200131 8.463270 2.952859 -0.000016 0.000064 0.000001 0.000001 -0.000000 9.104600 -0.042904 -1.865211 70.816112 -20.600918 14.724431 3.150044 0.000151 -0.000091 74.583719 -14.099026 10.761620 2.950017 0.000141 -0.000084 73.341731 -10.596591 7.901409 2.644324 0.000047 0.000054 0.000001 -0.000000 0.000000 8.077844 -0.486776 -3.806379 62.730486 -20.912251 13.228187 3.599989 0.000108 0.014585 62.013405 -17.330094 10.799393 2.100020 0.000129 0.007548 62.804682 -12.609897 8.022158 2.125497 -0.000017 0.007519 -0.000001 0.000003 0.000003 -8.207786 -6.751667 -1.599560 -0.077001 -0.000003 0.000080 -0.000002 -44.370110 0.345938 0.153719 -0.000000 -0.000000 0.000000 -44.423679 -3.043532 -0.076700 0.000000 -0.000002 -0.000006 -8.728667 10.710559 -0.000009 -0.000000 -0.000000 -0.000001 -0.000679 9.278123 0.000000 -0.000000 -0.000000 8.207792 -6.751710 -1.599556 -0.074518 -0.000003 0.000081 -0.000002 -44.370014 0.346960 0.148822 0.000002 0.000000 -0.000001 -44.423664 -3.044403 -0.074314 0.000000 -0.000002 -0.000004 -8.728671 10.710558 0.000007 -0.000000 -0.000000 0.000000 -0.000680 9.278137 -0.000000 0.000000 -0.000001 
